<mxfile host="app.diagrams.net" agent="Mozilla/5.0 (Windows NT 10.0; Win64; x64; rv:132.0) Gecko/20100101 Firefox/132.0" version="24.8.6">
  <diagram name="Page-1" id="8XFXuek9GzA3VH5bm_k0">
    <mxGraphModel dx="1750" dy="1997" grid="1" gridSize="10" guides="1" tooltips="1" connect="1" arrows="1" fold="1" page="1" pageScale="1" pageWidth="850" pageHeight="1100" math="0" shadow="0">
      <root>
        <mxCell id="0" />
        <mxCell id="1" parent="0" />
        <mxCell id="IP00RWrGnowcMQVVSCY--12" style="edgeStyle=orthogonalEdgeStyle;rounded=0;orthogonalLoop=1;jettySize=auto;html=1;" edge="1" parent="1" source="IP00RWrGnowcMQVVSCY--1" target="IP00RWrGnowcMQVVSCY--5">
          <mxGeometry relative="1" as="geometry" />
        </mxCell>
        <mxCell id="IP00RWrGnowcMQVVSCY--13" style="edgeStyle=orthogonalEdgeStyle;rounded=0;orthogonalLoop=1;jettySize=auto;html=1;" edge="1" parent="1" source="IP00RWrGnowcMQVVSCY--1" target="IP00RWrGnowcMQVVSCY--5">
          <mxGeometry relative="1" as="geometry" />
        </mxCell>
        <mxCell id="IP00RWrGnowcMQVVSCY--16" style="edgeStyle=orthogonalEdgeStyle;rounded=0;orthogonalLoop=1;jettySize=auto;html=1;entryX=0;entryY=0.25;entryDx=0;entryDy=0;" edge="1" parent="1" source="IP00RWrGnowcMQVVSCY--1" target="IP00RWrGnowcMQVVSCY--4">
          <mxGeometry relative="1" as="geometry" />
        </mxCell>
        <mxCell id="IP00RWrGnowcMQVVSCY--17" style="edgeStyle=orthogonalEdgeStyle;rounded=0;orthogonalLoop=1;jettySize=auto;html=1;entryX=0;entryY=0.75;entryDx=0;entryDy=0;" edge="1" parent="1" source="IP00RWrGnowcMQVVSCY--1" target="IP00RWrGnowcMQVVSCY--6">
          <mxGeometry relative="1" as="geometry" />
        </mxCell>
        <mxCell id="IP00RWrGnowcMQVVSCY--1" value="Admin" style="shape=umlActor;verticalLabelPosition=bottom;verticalAlign=top;html=1;outlineConnect=0;" vertex="1" parent="1">
          <mxGeometry x="110" y="330" width="30" height="60" as="geometry" />
        </mxCell>
        <mxCell id="IP00RWrGnowcMQVVSCY--2" value="" style="whiteSpace=wrap;html=1;aspect=fixed;textShadow=0;opacity=60;" vertex="1" parent="1">
          <mxGeometry x="210" y="180" width="370" height="370" as="geometry" />
        </mxCell>
        <mxCell id="IP00RWrGnowcMQVVSCY--4" value="CarManagement" style="rounded=1;whiteSpace=wrap;html=1;" vertex="1" parent="1">
          <mxGeometry x="330" y="210" width="120" height="60" as="geometry" />
        </mxCell>
        <mxCell id="IP00RWrGnowcMQVVSCY--5" value="Lease Management" style="rounded=1;whiteSpace=wrap;html=1;" vertex="1" parent="1">
          <mxGeometry x="330" y="320" width="120" height="60" as="geometry" />
        </mxCell>
        <mxCell id="IP00RWrGnowcMQVVSCY--6" value="User Management" style="rounded=1;whiteSpace=wrap;html=1;" vertex="1" parent="1">
          <mxGeometry x="330" y="460" width="120" height="60" as="geometry" />
        </mxCell>
        <mxCell id="IP00RWrGnowcMQVVSCY--18" style="edgeStyle=orthogonalEdgeStyle;rounded=0;orthogonalLoop=1;jettySize=auto;html=1;" edge="1" parent="1" source="IP00RWrGnowcMQVVSCY--7" target="IP00RWrGnowcMQVVSCY--4">
          <mxGeometry relative="1" as="geometry" />
        </mxCell>
        <mxCell id="IP00RWrGnowcMQVVSCY--19" style="edgeStyle=orthogonalEdgeStyle;rounded=0;orthogonalLoop=1;jettySize=auto;html=1;entryX=1;entryY=0.75;entryDx=0;entryDy=0;" edge="1" parent="1" source="IP00RWrGnowcMQVVSCY--7" target="IP00RWrGnowcMQVVSCY--5">
          <mxGeometry relative="1" as="geometry" />
        </mxCell>
        <mxCell id="IP00RWrGnowcMQVVSCY--42" style="edgeStyle=orthogonalEdgeStyle;rounded=0;orthogonalLoop=1;jettySize=auto;html=1;" edge="1" parent="1" source="IP00RWrGnowcMQVVSCY--7" target="IP00RWrGnowcMQVVSCY--21">
          <mxGeometry relative="1" as="geometry" />
        </mxCell>
        <mxCell id="IP00RWrGnowcMQVVSCY--7" value="Car Owner" style="shape=umlActor;verticalLabelPosition=bottom;verticalAlign=top;html=1;outlineConnect=0;" vertex="1" parent="1">
          <mxGeometry x="670" y="200" width="30" height="60" as="geometry" />
        </mxCell>
        <mxCell id="IP00RWrGnowcMQVVSCY--20" style="edgeStyle=orthogonalEdgeStyle;rounded=0;orthogonalLoop=1;jettySize=auto;html=1;" edge="1" parent="1" source="IP00RWrGnowcMQVVSCY--8" target="IP00RWrGnowcMQVVSCY--5">
          <mxGeometry relative="1" as="geometry" />
        </mxCell>
        <mxCell id="IP00RWrGnowcMQVVSCY--52" style="edgeStyle=orthogonalEdgeStyle;rounded=0;orthogonalLoop=1;jettySize=auto;html=1;" edge="1" parent="1" source="IP00RWrGnowcMQVVSCY--8">
          <mxGeometry relative="1" as="geometry">
            <mxPoint x="900" y="430" as="targetPoint" />
          </mxGeometry>
        </mxCell>
        <mxCell id="IP00RWrGnowcMQVVSCY--8" value="End User" style="shape=umlActor;verticalLabelPosition=bottom;verticalAlign=top;html=1;outlineConnect=0;" vertex="1" parent="1">
          <mxGeometry x="670" y="400" width="30" height="60" as="geometry" />
        </mxCell>
        <mxCell id="IP00RWrGnowcMQVVSCY--21" value="" style="whiteSpace=wrap;html=1;aspect=fixed;textOpacity=80;" vertex="1" parent="1">
          <mxGeometry x="905" y="-160" width="370" height="370" as="geometry" />
        </mxCell>
        <mxCell id="IP00RWrGnowcMQVVSCY--25" value="&lt;b&gt;Car Management&lt;/b&gt;" style="text;html=1;align=center;verticalAlign=middle;whiteSpace=wrap;rounded=0;" vertex="1" parent="1">
          <mxGeometry x="990" y="-200" width="190" height="30" as="geometry" />
        </mxCell>
        <mxCell id="IP00RWrGnowcMQVVSCY--34" value="" style="rounded=1;whiteSpace=wrap;html=1;" vertex="1" parent="1">
          <mxGeometry x="1000" y="-50" width="170" height="60" as="geometry" />
        </mxCell>
        <mxCell id="IP00RWrGnowcMQVVSCY--35" value="" style="rounded=1;whiteSpace=wrap;html=1;" vertex="1" parent="1">
          <mxGeometry x="1000" y="-130" width="170" height="60" as="geometry" />
        </mxCell>
        <mxCell id="IP00RWrGnowcMQVVSCY--36" value="Add Car Information " style="text;html=1;align=center;verticalAlign=middle;whiteSpace=wrap;rounded=0;" vertex="1" parent="1">
          <mxGeometry x="1020" y="-120" width="110" height="30" as="geometry" />
        </mxCell>
        <mxCell id="IP00RWrGnowcMQVVSCY--37" value="Modify Car information " style="text;html=1;align=center;verticalAlign=middle;whiteSpace=wrap;rounded=0;" vertex="1" parent="1">
          <mxGeometry x="1020" y="-40" width="120" height="30" as="geometry" />
        </mxCell>
        <mxCell id="IP00RWrGnowcMQVVSCY--38" value="" style="rounded=1;whiteSpace=wrap;html=1;" vertex="1" parent="1">
          <mxGeometry x="1000" y="30" width="170" height="60" as="geometry" />
        </mxCell>
        <mxCell id="IP00RWrGnowcMQVVSCY--39" value="Delete Cars information " style="text;html=1;align=center;verticalAlign=middle;whiteSpace=wrap;rounded=0;" vertex="1" parent="1">
          <mxGeometry x="1010" y="40" width="130" height="30" as="geometry" />
        </mxCell>
        <mxCell id="IP00RWrGnowcMQVVSCY--40" value="" style="rounded=1;whiteSpace=wrap;html=1;" vertex="1" parent="1">
          <mxGeometry x="1000" y="120" width="170" height="60" as="geometry" />
        </mxCell>
        <mxCell id="IP00RWrGnowcMQVVSCY--41" value="List of Cars" style="text;html=1;align=center;verticalAlign=middle;whiteSpace=wrap;rounded=0;" vertex="1" parent="1">
          <mxGeometry x="1030" y="135" width="120" height="30" as="geometry" />
        </mxCell>
        <mxCell id="IP00RWrGnowcMQVVSCY--43" value="" style="whiteSpace=wrap;html=1;aspect=fixed;" vertex="1" parent="1">
          <mxGeometry x="905" y="300" width="385" height="385" as="geometry" />
        </mxCell>
        <mxCell id="IP00RWrGnowcMQVVSCY--44" value="&lt;b&gt;Lease Management&lt;/b&gt;" style="text;html=1;align=center;verticalAlign=middle;whiteSpace=wrap;rounded=0;" vertex="1" parent="1">
          <mxGeometry x="995" y="260" width="190" height="30" as="geometry" />
        </mxCell>
        <mxCell id="IP00RWrGnowcMQVVSCY--45" value="" style="rounded=1;whiteSpace=wrap;html=1;" vertex="1" parent="1">
          <mxGeometry x="1000" y="330" width="180" height="50" as="geometry" />
        </mxCell>
        <mxCell id="IP00RWrGnowcMQVVSCY--46" value="Booking " style="text;html=1;align=center;verticalAlign=middle;whiteSpace=wrap;rounded=0;" vertex="1" parent="1">
          <mxGeometry x="1055" y="340" width="60" height="30" as="geometry" />
        </mxCell>
        <mxCell id="IP00RWrGnowcMQVVSCY--47" value="" style="rounded=1;whiteSpace=wrap;html=1;" vertex="1" parent="1">
          <mxGeometry x="1000" y="400" width="180" height="50" as="geometry" />
        </mxCell>
        <mxCell id="IP00RWrGnowcMQVVSCY--48" value="Booking history" style="text;html=1;align=center;verticalAlign=middle;whiteSpace=wrap;rounded=0;" vertex="1" parent="1">
          <mxGeometry x="1042.5" y="410" width="95" height="30" as="geometry" />
        </mxCell>
        <mxCell id="IP00RWrGnowcMQVVSCY--49" value="" style="rounded=1;whiteSpace=wrap;html=1;" vertex="1" parent="1">
          <mxGeometry x="1000" y="460" width="180" height="50" as="geometry" />
        </mxCell>
        <mxCell id="IP00RWrGnowcMQVVSCY--50" value="Status" style="text;html=1;align=center;verticalAlign=middle;whiteSpace=wrap;rounded=0;" vertex="1" parent="1">
          <mxGeometry x="1037.5" y="470" width="95" height="30" as="geometry" />
        </mxCell>
        <mxCell id="IP00RWrGnowcMQVVSCY--51" value="Lease History" style="rounded=1;whiteSpace=wrap;html=1;" vertex="1" parent="1">
          <mxGeometry x="1000" y="540" width="180" height="50" as="geometry" />
        </mxCell>
        <mxCell id="IP00RWrGnowcMQVVSCY--55" value="" style="rounded=0;whiteSpace=wrap;html=1;opacity=20;strokeWidth=1;glass=0;perimeterSpacing=5;shadow=1;" vertex="1" parent="1">
          <mxGeometry x="1490" y="250" width="270" height="270" as="geometry" />
        </mxCell>
        <mxCell id="IP00RWrGnowcMQVVSCY--56" value="Lease Information" style="rounded=1;whiteSpace=wrap;html=1;" vertex="1" parent="1">
          <mxGeometry x="1535" y="280" width="180" height="50" as="geometry" />
        </mxCell>
        <mxCell id="IP00RWrGnowcMQVVSCY--58" value="Lease Life Cycle" style="rounded=1;whiteSpace=wrap;html=1;" vertex="1" parent="1">
          <mxGeometry x="1535" y="360" width="180" height="50" as="geometry" />
        </mxCell>
        <mxCell id="IP00RWrGnowcMQVVSCY--59" value="Create ,Modify ,Cancel" style="rounded=1;whiteSpace=wrap;html=1;" vertex="1" parent="1">
          <mxGeometry x="1535" y="430" width="185" height="60" as="geometry" />
        </mxCell>
        <mxCell id="IP00RWrGnowcMQVVSCY--60" style="edgeStyle=orthogonalEdgeStyle;rounded=0;orthogonalLoop=1;jettySize=auto;html=1;entryX=0.025;entryY=0.284;entryDx=0;entryDy=0;entryPerimeter=0;" edge="1" parent="1" source="IP00RWrGnowcMQVVSCY--45" target="IP00RWrGnowcMQVVSCY--55">
          <mxGeometry relative="1" as="geometry" />
        </mxCell>
        <mxCell id="IP00RWrGnowcMQVVSCY--65" value="&lt;div align=&quot;left&quot;&gt;&lt;ul&gt;&lt;li&gt;&lt;span style=&quot;white-space:pre-wrap;&quot;&gt;lease id, &lt;/span&gt;&lt;/li&gt;&lt;li&gt;&lt;span style=&quot;white-space:pre-wrap;&quot;&gt;customer id, &lt;/span&gt;&lt;/li&gt;&lt;li&gt;&lt;span style=&quot;white-space:pre-wrap;&quot;&gt;car id, &lt;/span&gt;&lt;/li&gt;&lt;li&gt;&lt;span style=&quot;white-space:pre-wrap;&quot;&gt;lease start date, &lt;/span&gt;&lt;/li&gt;&lt;li&gt;&lt;span style=&quot;white-space:pre-wrap;&quot;&gt;lease end date,&lt;/span&gt;&lt;/li&gt;&lt;li&gt;&lt;span style=&quot;white-space:pre-wrap;&quot;&gt;booking date, &lt;/span&gt;&lt;/li&gt;&lt;li&gt;&lt;span style=&quot;white-space:pre-wrap;&quot;&gt;lease_status (booking/hold, pick up, drop, cancel), &lt;/span&gt;&lt;/li&gt;&lt;li&gt;&lt;span style=&quot;white-space:pre-wrap;&quot;&gt;last_updated&lt;/span&gt;&lt;/li&gt;&lt;/ul&gt;&lt;span style=&quot;white-space:pre-wrap;&quot;&gt;&lt;/span&gt;&lt;br&gt;&lt;span style=&quot;white-space:pre-wrap;&quot;&gt;&lt;/span&gt;&lt;/div&gt;" style="rounded=0;whiteSpace=wrap;html=1;opacity=20;strokeWidth=1;glass=0;perimeterSpacing=5;shadow=1;align=left;" vertex="1" parent="1">
          <mxGeometry x="1910" y="140" width="280" height="270" as="geometry" />
        </mxCell>
        <mxCell id="IP00RWrGnowcMQVVSCY--66" value="&lt;span style=&quot;white-space:pre-wrap;&quot;&gt;Lease Information&lt;/span&gt;" style="text;html=1;align=center;verticalAlign=middle;whiteSpace=wrap;rounded=0;fontStyle=1" vertex="1" parent="1">
          <mxGeometry x="1982.5" y="105" width="125" height="30" as="geometry" />
        </mxCell>
        <mxCell id="IP00RWrGnowcMQVVSCY--67" value="&lt;b&gt;Booking&lt;/b&gt;" style="text;html=1;align=center;verticalAlign=middle;whiteSpace=wrap;rounded=0;" vertex="1" parent="1">
          <mxGeometry x="1525" y="200" width="190" height="30" as="geometry" />
        </mxCell>
        <mxCell id="IP00RWrGnowcMQVVSCY--69" style="edgeStyle=orthogonalEdgeStyle;rounded=0;orthogonalLoop=1;jettySize=auto;html=1;entryX=0.005;entryY=0.406;entryDx=0;entryDy=0;entryPerimeter=0;" edge="1" parent="1" source="IP00RWrGnowcMQVVSCY--56" target="IP00RWrGnowcMQVVSCY--65">
          <mxGeometry relative="1" as="geometry" />
        </mxCell>
        <mxCell id="IP00RWrGnowcMQVVSCY--70" value="&lt;span style=&quot;white-space:pre-wrap;&quot;&gt;&lt;br&gt;&lt;br&gt;&lt;/span&gt;&lt;div align=&quot;left&quot;&gt;&lt;ul&gt;&lt;li&gt;&lt;span style=&quot;white-space:pre-wrap;&quot;&gt;Create booking,modify Booking ,Delete Booking&lt;/span&gt;&lt;/li&gt;&lt;li&gt;&lt;span style=&quot;white-space:pre-wrap;&quot;&gt;Booking - Hold (update lease status as booking) &lt;/span&gt;&lt;/li&gt;&lt;li&gt;&lt;span style=&quot;white-space:pre-wrap;&quot;&gt;Pickup - Contract start (update lease staus as picked up)&lt;/span&gt;&lt;/li&gt;&lt;li&gt;&lt;span style=&quot;white-space:pre-wrap;&quot;&gt;Drop - Contract End (update the status as dropped off)&lt;/span&gt;&lt;/li&gt;&lt;li&gt;&lt;span style=&quot;white-space:pre-wrap;&quot;&gt;Cancel - Contract Cancel (update the status as cancelled)&lt;/span&gt;&lt;/li&gt;&lt;li&gt;&lt;span style=&quot;white-space:pre-wrap;&quot;&gt;Functional requirement&lt;/span&gt;&lt;/li&gt;&lt;/ul&gt;&lt;/div&gt;" style="rounded=0;whiteSpace=wrap;html=1;opacity=20;strokeWidth=1;glass=0;perimeterSpacing=5;shadow=1;align=left;" vertex="1" parent="1">
          <mxGeometry x="1910" y="460" width="280" height="270" as="geometry" />
        </mxCell>
        <mxCell id="IP00RWrGnowcMQVVSCY--71" style="edgeStyle=orthogonalEdgeStyle;rounded=0;orthogonalLoop=1;jettySize=auto;html=1;entryX=0.016;entryY=0.726;entryDx=0;entryDy=0;entryPerimeter=0;" edge="1" parent="1" source="IP00RWrGnowcMQVVSCY--58" target="IP00RWrGnowcMQVVSCY--70">
          <mxGeometry relative="1" as="geometry" />
        </mxCell>
      </root>
    </mxGraphModel>
  </diagram>
</mxfile>
